<svg xmlns="http://www.w3.org/2000/svg" viewBox="0 0 2000 320" height="320" width="2000"><path d="M126 34c-6 0-12 1-17 4 -25 13-27 49-3 64 11 7 15 16 6 16 -4 0-25 11-33 18 -7 6-7 7-8 24 -1 11-3 20-6 25 -2 6-3 9-1 10 3 5 22 13 29 13 5 0 6 1 6 5 0 7-6 18-12 26 -5 5-18 12-30 16 -4 1-4 3-3 13 2 16 5 26 10 31 3 3 6 4 17 3 8-1 15-2 16-2 2-2-5-12-11-14 -2-1-5-4-5-6 -1-1-2-4-3-6 -1-3 2-5 12-11 11-7 13-9 19-22 3-8 7-15 8-15 4 0 18 22 22 33 2 6 5 16 6 22l1 12 7-1c16-2 42-20 42-29 0-3-1-3-11-2 -6 0-14 2-17 2 -4 1-5 1-8-8 -2-6-8-16-13-24l-8-13 7-14c3-8 6-18 6-22v-6l5 4 5 5 6-6c3-3 7-8 9-10 1-2 7-6 12-9l10-5 -5-7c-3-4-6-9-6-11 -1-5-7-8-12-5 -2 1-5 2-6 2 -2 0-4 3-6 7 -3 6-3 7 0 10 2 2 2 3 0 5 -3 2-4 0-11-10 -4-7-10-16-13-20 -8-10-7-16 6-22 22-11 27-40 11-59C149 38 137 34 126 34zM112 141l2 4c2 7-2 26-8 40 -3 7-5 13-6 13 0 0-1-3-1-7 0-6-2-8-5-10 -4-2-5-3-5-16v-14l12-5L112 141zM371 48c-13 0-21 4-29 13 -11 12-13 27-5 42 3 5 16 17 20 17 1 0 3 2 3 4 2 3-2 6-7 6 -2 0-35 15-37 17 -1 1-3 8-5 16 -2 11-5 17-8 19 -2 1-5 5-7 9 -3 6-3 6 3 11 8 7 26 15 29 13 3-4 4-25 1-27 -2-1-2-4 0-15l1-13 14-5 13-4 1 5c1 10-3 29-8 41 -6 13-6 19-4 41 1 5 1 10 0 10s-7-1-15-3c-20-4-19-4-17 8 2 13 9 29 17 38 9 10 11 7 11-10v-13l10 1c12 0 10 2 15-23 2-12 6-11 13 2 6 11 6 11 2 18 -1 4-6 11-9 16s-5 9-5 10c1 0 9 1 19 2 18 1 40-2 40-6 0-3-8-7-18-10 -5-1-9-3-9-3 -1 0 1-3 2-7 5-9 4-14-7-30l-9-15 4-12c3-6 5-15 5-20 0-7 1-7 4-4 7 6 13 4 27-9 4-3 11-7 16-9s9-4 9-5c0 0-2-5-5-9 -2-4-5-8-5-10 0-1-1-3-3-5s-4-2-7 0c-2 1-5 2-7 2 -3 0-9 11-8 15 0 3-5 11-8 11 -1 0-3-3-6-7 -2-4-8-12-14-18 -12-13-13-18-3-23 11-5 20-15 22-25C414 71 396 48 371 48zM615 33c-5 0-10 1-15 3 -28 13-30 50-3 66 8 4 9 5 7 10 0 3-1 9-2 13 0 5-3 15-7 24l-8 15 4 8c4 7 4 8 1 15 -3 9-3 21 0 26 2 2 3 8 3 12 0 7 0 7-6 6s-6-1-5 3c1 3 3 8 5 12 2 6 2 7-2 15 -2 4-7 12-11 18 -4 5-7 10-7 11s3 2 6 3c18 3 53 0 53-5 0-1-3-3-5-5 -4-3-5-6-6-15v-11l6-1c17-4 19-6 18-13 -1-3-4-10-7-16 -4-5-5-9-4-8 2 0 5-1 6-3 3-3 3-5 2-12 -2-6-1-10 1-17 5-13 2-31-7-52s-10-29-6-29c2 0 6-2 11-5 18-11 23-35 11-51C640 38 628 32 615 33zM613 232c2 0 2 1 2 2s0 2-2 2c-1 0-2-1-2-2S612 232 613 232zM871 19c-22-1-42 19-39 42 2 12 8 20 19 27 7 4 10 8 10 10 0 3-7 11-19 23l-19 18 2 21c2 16 2 24 0 32 -3 12-1 14 10 14 3 0 6 1 6 2 0 3-20 31-32 45l-12 13 4 10c3 5 7 11 9 14 4 4 5 5 20 3 19-1 23-3 15-10 -3-3-7-5-9-5s-6-1-7-4c-4-3-3-4 7-20 6-9 14-22 18-29 5-10 8-13 12-14 6-1 17 4 17 8 0 0-3 2-8 3 -11 4-12 5-10 10 9 17 45 41 44 30 0-4-7-19-9-21 -5-2-3-6 5-11 5-3 8-6 8-8 0-1-6-8-13-15l-13-13 3-9c4-8 4-8 12-7 5 0 10 2 12 3 8 6 13 4 18-6 2-5 4-13 5-18 1-7 0-8-4-9 -5-2-18 0-21 3 -1 1-2 3-1 5s-1 2-7 2c-6-1-8-2-8-6 -1-7-9-30-14-40 -4-8-4-20-1-20 1 0 6-3 11-6 24-16 21-52-6-64C881 20 876 19 871 19zM858 136c2 0-1 17-5 28 -2 6-5 10-5 10 -1 0-3-4-3-9 -1-5-2-11-3-13 -1-4 1-6 7-10C854 139 858 136 858 136zM1123 34c-19 0-36 14-37 33 -1 6-1 13 0 16 2 6 12 19 20 22 9 5 7 9-9 18 -8 5-18 11-22 14 -7 5-7 5-9 22 0 9-2 22-4 30 -2 7-2 14-2 15 1 1 5 3 9 3 4 1 8 3 9 4 2 4 11-2 11-7 0-3 1-6 2-7 3-2-2-17-6-17 -1 0-2-6-2-14v-14l11-5c15-7 15-6 15 5s-3 25-10 39c-3 7-4 12-3 20 2 18-11 31-35 34 -4 1-8 3-9 5 -2 4 3 36 5 39 6 7 32 6 32-1 0-2-2-5-4-7 -13-11-15-16-6-17 10-2 19-10 26-22l6-12 7 8c13 14 21 37 21 56v9l7-2c23-4 53-29 40-34 -3-1-16 1-23 4 -2 1-4-2-9-12 -3-8-9-19-14-26l-8-13 7-14c5-10 7-17 8-26 0-6 1-12 2-12 0 0 3 2 7 4l7 4 8-7c4-4 9-7 10-7 6 0 12-5 12-10s-5-19-10-26c-3-4-3-5-9-2 -3 2-7 6-10 10 -4 7-4 7-1 11 2 2 2 4 0 6 -2 3-4 1-18-13 -18-20-20-26-9-31 33-13 34-54 2-69C1133 36 1128 34 1123 34zM1373 53c-10 1-19 4-26 12 -17 19-14 45 8 57 9 6 10 9 5 10 -9 3-21 9-31 16 -10 6-11 8-17 22 -3 8-8 20-11 26 -3 7-6 13-6 14 0 2 21 11 25 11 2 0 4-1 5-3 0-2 2-5 3-7 2-5 2-13-1-18 -2-4-1-8 1-16 3-10 4-11 12-14 5-2 11-4 15-5 6-1 6-1 6 6 0 10-4 25-10 38 -4 10-5 22-2 29 1 2 2 6 2 9 0 5 0 5-7 5 -4 0-11-1-16-3 -4-1-8-3-8-3 -2 0 2 21 7 30 5 13 17 25 20 23 3-1 2-14-1-21 -1-3 0-4 5-4 3 0 9-1 12-2 6-2 7-3 6-11 0-5 0-9 1-9s4 4 7 9c4 7 5 11 3 16 -1 6-7 21-12 32 -1 0 2 2 6 3 8 3 38 1 46-2 3-1 5-3 5-4 -2-5-11-10-19-11l-8-1 4-14c4-14 4-14 0-20 -2-2-7-9-10-14l-7-9 7-14c5-10 6-17 6-25 0-7 1-12 2-12s5 2 9 3c8 3 8 3 16-2 5-2 9-5 10-5 2 0 5-1 9-3 5-3 6-4 4-9 -1-8-7-21-11-27 -3-4-3-4-11 3 -10 10-12 14-7 18 3 4 3 4 0 5 -2 1-9-3-19-12 -8-7-16-13-17-13s-2-2-2-5 2-5 5-6c7-1 19-12 23-20 4-7 4-24 0-32C1402 60 1387 53 1373 53zM1615 31h-6c-35 5-44 50-15 68 11 7 12 10 9 17 -4 7-10 44-11 59 0 7-1 16-3 21 -2 6-2 10 0 15 4 10 3 23-1 23 -3 0-3 2-1 9 3 7-2 27-11 46 -5 13-5 14 3 16 8 1 37 0 44-3 5-2 6-3 4-6 -3-5-14-10-20-10 -5 0-6 0-4-5 1-8 1-8 8-3 3 2 7 4 8 4 3 0 3-9-1-17 -1-4-3-8-3-8s3 0 7 1c6 2 15 1 17-1 1 0 0-7-2-15 -1-8-2-17-3-20 0-3-1-7-3-9s-1-5 3-16c4-8 5-17 5-24 0-10-1-16-8-43 -1-5-4-10-6-12 -5-5-3-13 3-15 13-4 25-20 25-35C1653 48 1636 31 1615 31zM1614 236c2 0 4 1 4 2 1 1 0 2-1 2 -2 0-4-1-5-2C1612 237 1613 236 1614 236zM1874 20c-17 0-29 8-36 23 -7 17 0 36 16 46 5 3 9 7 9 8 0 5-5 16-10 21 -3 3-9 10-12 15l-7 10 2 17c1 13 1 17-1 21 -2 2-4 7-4 10 -2 6-1 7 5 10 4 2 7 5 7 6 0 4-17 38-27 55 -12 19-12 22-1 36l5 7 19-1c23-1 26-4 17-12 -4-4-9-6-12-6 -12 0-12-3 2-35 7-17 13-32 14-34 2-5 13-7 23-4 12 4 10 6-11 11 -2 0 9 16 15 23 8 8 20 15 26 15 4 0 2-10-5-20l-5-8 7-3c14-6 14-8-3-24l-16-15 4-10c2-6 4-10 5-9 11 4 32 9 34 9 3-2 8-26 6-30 0-1-3-2-5-2 -3 0-6-1-7-2 -2-2-15 3-15 7 0 2-1 2-8 1 -5-2-8-3-8-6 0-4-9-32-12-39 -5-10-5-16 2-19 17-7 25-20 24-38C1910 34 1894 20 1874 20zM1860 140c1 1 1 4-1 12 -2 12-5 13-6 3 -1-6 0-9 3-12C1858 141 1859 140 1860 140z"/></svg>
